<?xml version="1.0" encoding="iso-8859-1"?>
<!-- Generator: Adobe Illustrator 25.4.1, SVG Export Plug-In . SVG Version: 6.00 Build 0)  -->
<svg version="1.1" id="Layer_1" xmlns="http://www.w3.org/2000/svg" xmlns:xlink="http://www.w3.org/1999/xlink" x="0px" y="0px"
	 viewBox="0 0 512 512" style="enable-background:new 0 0 512 512;" xml:space="preserve">
<rect style="fill:#EDEDEE;" width="512" height="512"/>
<g>
	<path style="fill:#100D19;" d="M255.411,128.983c-2.731,0.441-19.52,7.975-28.452,16.168c-8.804,8.075-14.572,14.169-18.442,20.491
		c-3.571,5.832-1.696,7.265-0.714,8.808c1.666,2.618,1.666,4.404,0.595,5.475c-1.635,1.635-7.598,7.736-7.598,7.736l48.232,48.777
		c0,0,4.32-2.484,9.87,2.471c6.757,6.033,129.648,123.149,129.648,123.149s10.9,7.63,2.725,16.077l-16.895,16.077
		c0,0-6.54,8.992-15.805-1.09S238.685,266.458,235.117,262.89s-3.766-7.135-2.436-9.286l-49.049-49.049l-6.54,7.085
		c0,0-3.258,3.83-6.267,0.817c-1.467-1.468-3.556-1.368-4.918-0.278c-1.362,1.09-8.434,8.725-8.434,8.725s-2.379,2.662-0.273,5.177
		c1.744,2.083,1.767,3.416-0.272,5.722c-2.328,2.632-10.541,10.488-10.541,10.488s-3.084,2.865-7.444-0.95
		c-4.36-3.815-20.71-20.71-20.71-20.71s-1.635-2.997,0.817-5.45c2.452-2.452,9.81-10.627,9.81-10.627s3.253-2.977,6.54-0.273
		c2.655,2.184,4.087,0.273,6.267-1.635c2.18-1.907,7.337-7.369,7.337-7.369s2.735-2.63,0.357-4.642
		c-1.547-1.309-1.972-4.066,0.208-5.974s25.342-25.342,36.514-36.514s36.715-28.33,69.327-22.736
		C260.4,126.268,259.602,128.306,255.411,128.983z"/>
	<g>
		<path style="fill:#100D19;" d="M246.527,293.644l-23.226-23.226l-37.197,37.197c-6.869-3.211-14.616-4.856-22.79-4.444
			c-24.541,1.237-44.424,21.238-45.523,45.786c-0.264,5.89,0.54,11.554,2.227,16.825c0.45,1.406,3.283,5.208,6.626,1.294
			l22.522-22.522c2.808-2.808,7.362-2.808,10.17,0l12.73,12.73c2.808,2.808,2.808,7.362,0,10.17c0,0-20.8,20.482-23.028,23.028
			c-2.229,2.546-0.892,5.405,0.73,5.978c5.666,2.004,11.82,2.976,18.237,2.687c24.635-1.109,44.667-21.141,45.777-45.776
			c0.364-8.076-1.28-15.731-4.456-22.527L246.527,293.644z"/>
		<path style="fill:#100D19;" d="M391.821,156.27c-0.45-1.406-3.283-5.208-6.626-1.294l-22.522,22.522
			c-2.808,2.808-7.362,2.808-10.17,0l-12.73-12.73c-2.808-2.809-2.808-7.362,0-10.17c0,0,20.8-20.482,23.028-23.028
			c2.229-2.546,0.892-5.405-0.73-5.978c-5.666-2.004-11.82-2.976-18.237-2.687c-24.635,1.109-44.667,21.141-45.777,45.776
			c-0.364,8.076,1.28,15.731,4.456,22.527l-36.618,36.618l23.226,23.226l36.613-36.613c6.869,3.211,14.616,4.856,22.79,4.444
			c24.541-1.237,44.424-21.238,45.523-45.786C394.312,167.205,393.508,161.54,391.821,156.27z"/>
	</g>
</g>
<polygon style="fill:#6D6E71;" points="452.513,512 257.547,413.923 62.58,512 "/>
<polygon style="fill:#FBB040;" points="512,50.614 413.923,245.581 512,440.547 "/>
<polygon style="fill:#FBB040;" points="0,451.313 98.077,256.346 0,61.38 "/>
<polygon style="fill:#6D6E71;" points="73.346,0 268.312,98.077 463.279,0 "/>
</svg>
